<?xml version="1.0" encoding="UTF-8"?>
<svg width="301px" height="301px" viewBox="0 0 301 301" version="1.1" xmlns="http://www.w3.org/2000/svg" xmlns:xlink="http://www.w3.org/1999/xlink" style="background: #242529;">
    <title>矩形</title>
    <g id="页面-1" stroke="none" stroke-width="1" fill="none" fill-rule="evenodd">
        <rect id="矩形" fill="#292B30" opacity="0.560000002" x="0" y="0" width="301" height="301"></rect>
        <g id="编组-20" transform="translate(73.834149, 77.400072)" fill="#FAC145">
            <rect id="矩形" x="4.16585071" y="5.59992809" width="26" height="134" rx="13"></rect>
            <rect id="矩形" x="124.165851" y="5.59992809" width="26" height="95" rx="13"></rect>
            <circle id="椭圆形" cx="137.165851" cy="126.599928" r="13"></circle>
            <path d="M47.0247185,-2.78494995 C54.1841045,-2.78494995 59.9879336,3.01887915 59.9879336,10.1782652 L59.9879336,135.821735 C59.9879336,142.981121 54.1841045,148.78495 47.0247185,148.78495 C39.8653325,148.78495 34.0615034,142.981121 34.0615034,135.821735 L34.0615034,10.1782652 C34.0615034,3.01887915 39.8653325,-2.78494995 47.0247185,-2.78494995 Z" id="矩形" transform="translate(47.024718, 73.000000) rotate(-28.000000) translate(-47.024718, -73.000000) "></path>
            <path d="M106.854942,-2.78494995 C114.014328,-2.78494995 119.818157,3.01887915 119.818157,10.1782652 L119.818157,135.821735 C119.818157,142.981121 114.014328,148.78495 106.854942,148.78495 C99.6955561,148.78495 93.891727,142.981121 93.891727,135.821735 L93.891727,10.1782652 C93.891727,3.01887915 99.6955561,-2.78494995 106.854942,-2.78494995 Z" id="矩形" transform="translate(106.854942, 73.000000) scale(-1, 1) rotate(-28.000000) translate(-106.854942, -73.000000) "></path>
        </g>
    </g>
</svg>